<mxfile host="app.diagrams.net" agent="Mozilla/5.0 (Macintosh; Intel Mac OS X 10_15_7) AppleWebKit/537.36 (KHTML, like Gecko) Chrome/131.0.0.0 Safari/537.36" version="26.0.2">
  <diagram name="Page-1" id="-PRZJL_y_DcYyeR3ZVRW">
    <mxGraphModel dx="2924" dy="1145" grid="1" gridSize="10" guides="1" tooltips="1" connect="1" arrows="1" fold="1" page="1" pageScale="1" pageWidth="850" pageHeight="1100" math="0" shadow="0">
      <root>
        <mxCell id="0" />
        <mxCell id="1" parent="0" />
        <mxCell id="lBE7YV5RTTJSdhW3G_g6-8" style="edgeStyle=orthogonalEdgeStyle;rounded=0;orthogonalLoop=1;jettySize=auto;html=1;exitX=0.5;exitY=1;exitDx=0;exitDy=0;fontSize=12;strokeWidth=3;" parent="1" source="jEus2W5ITfwieqKF0qT7-1" edge="1">
          <mxGeometry relative="1" as="geometry">
            <mxPoint x="-325" y="470" as="targetPoint" />
          </mxGeometry>
        </mxCell>
        <mxCell id="jEus2W5ITfwieqKF0qT7-1" value="" style="shape=image;verticalLabelPosition=bottom;labelBackgroundColor=default;verticalAlign=top;aspect=fixed;imageAspect=0;image=https://upload.wikimedia.org/wikipedia/en/thumb/0/06/Wiktionary-logo-v2.svg/1200px-Wiktionary-logo-v2.svg.png;" parent="1" vertex="1">
          <mxGeometry x="-375" y="263.25" width="100" height="100" as="geometry" />
        </mxCell>
        <mxCell id="jEus2W5ITfwieqKF0qT7-7" value="" style="shape=image;verticalLabelPosition=bottom;labelBackgroundColor=default;verticalAlign=top;aspect=fixed;imageAspect=0;image=https://dist.neo4j.com/wp-content/uploads/20210616181554/neo4j-connects-data.svg;" parent="1" vertex="1">
          <mxGeometry x="590" y="442" width="256.2" height="137" as="geometry" />
        </mxCell>
        <mxCell id="jEus2W5ITfwieqKF0qT7-11" style="edgeStyle=orthogonalEdgeStyle;rounded=0;orthogonalLoop=1;jettySize=auto;html=1;strokeWidth=3;strokeColor=#FAA627;" parent="1" target="jEus2W5ITfwieqKF0qT7-7" edge="1">
          <mxGeometry relative="1" as="geometry">
            <mxPoint x="490" y="510" as="sourcePoint" />
          </mxGeometry>
        </mxCell>
        <mxCell id="Xy-MJdKy8qwYKiyzYyn9-6" style="edgeStyle=orthogonalEdgeStyle;rounded=0;orthogonalLoop=1;jettySize=auto;html=1;strokeWidth=3;strokeColor=#FF3333;curved=1;" edge="1" parent="1">
          <mxGeometry relative="1" as="geometry">
            <mxPoint x="20" y="680" as="targetPoint" />
            <mxPoint x="-70" y="531" as="sourcePoint" />
          </mxGeometry>
        </mxCell>
        <mxCell id="jEus2W5ITfwieqKF0qT7-10" value="" style="shape=image;verticalLabelPosition=bottom;labelBackgroundColor=default;verticalAlign=top;aspect=fixed;imageAspect=0;image=https://upload.wikimedia.org/wikipedia/commons/9/91/Octicons-mark-github.svg;" parent="1" vertex="1">
          <mxGeometry x="-150" y="478" width="64" height="64" as="geometry" />
        </mxCell>
        <mxCell id="jEus2W5ITfwieqKF0qT7-30" style="edgeStyle=orthogonalEdgeStyle;rounded=0;orthogonalLoop=1;jettySize=auto;html=1;strokeWidth=3;" parent="1" edge="1">
          <mxGeometry relative="1" as="geometry">
            <mxPoint x="-275" y="509.75" as="sourcePoint" />
            <mxPoint x="-165" y="509.75" as="targetPoint" />
          </mxGeometry>
        </mxCell>
        <mxCell id="jEus2W5ITfwieqKF0qT7-18" value="" style="shape=image;editableCssRules=.*;verticalLabelPosition=bottom;labelBackgroundColor=default;verticalAlign=top;aspect=fixed;imageAspect=0;image=data:image/svg+xml,PHN2ZyB4bWxucz0iaHR0cDovL3d3dy53My5vcmcvMjAwMC9zdmciIHZpZXdCb3g9Ii0wLjUgLTAuNSAyOCAyOCIgaGVpZ2h0PSIyOCIgd2lkdGg9IjI4Ij4mI3hhOwkgIDxzdHlsZSB0eXBlPSJ0ZXh0L2NzcyI+LnN0MCB7IHN0b3AtY29sb3I6IHJnYig5MSwgMTE1LCAxMzkpOyB9IC5zdDEgeyBzdG9wLWNvbG9yOiByZ2IoMzQsIDUzLCA3Mik7IH0gPC9zdHlsZT4mI3hhOwk8ZGVmcz4mI3hhOwkJPGxpbmVhckdyYWRpZW50IGdyYWRpZW50VW5pdHM9InVzZXJTcGFjZU9uVXNlIiB5Mj0iMjUuMzA5IiB4Mj0iMjMuNDU0IiB5MT0iMy40NzQiIHgxPSIyLjAzOSIgaWQ9IkEiPiYjeGE7CQkJPHN0b3AgY2xhc3M9InN0MCIvPiYjeGE7CQkJPHN0b3AgY2xhc3M9InN0MSIgb2Zmc2V0PSIxIi8+JiN4YTsJCTwvbGluZWFyR3JhZGllbnQ+JiN4YTsJPC9kZWZzPiYjeGE7CTxwYXRoIGZpbGw9InVybCgjQSkiIGQ9Ik0tLjUgMTMuNDcyYzAtMS45My4zNzEtMy43MyAxLjExMy01LjQuNzQyLTEuNzA3IDEuNzQ0LTMuMTkyIDMuMDA2LTQuNDUzUzYuMzY1IDEuMzU2IDguMDczLjYxMyAxMS41OTgtLjUgMTMuNTI4LS41czMuNzMuMzcxIDUuNCAxLjExM2MxLjcwNy43NDIgMy4xOTIgMS43NDQgNC40NTMgMy4wMDZzMi4yNjQgMi43NDYgMy4wMDYgNC40NTNjLjc0MiAxLjY3IDEuMTEzIDMuNDcgMS4xMTMgNS40cy0uMzcxIDMuNzQ4LTEuMTEzIDUuNDU1LTEuNzQ0IDMuMTkyLTMuMDA2IDQuNDUzYTE0LjI4IDE0LjI4IDAgMCAxLTQuNDUzIDMuMDA2Yy0xLjY3Ljc0Mi0zLjQ3IDEuMTEzLTUuNCAxLjExM3MtMy43NDgtLjM3MS01LjQ1NS0xLjExM2ExNC4yOCAxNC4yOCAwIDAgMS00LjQ1My0zLjAwNiAxNC4yOCAxNC4yOCAwIDAgMS0zLjAwNi00LjQ1M0MtLjEyOSAxNy4yMi0uNSAxNS40MDItLjUgMTMuNDcyem0xNi44MTEgNC4yMzFhNi42NSA2LjY1IDAgMCAxIDMuMjg0LjgzNWMxLjAwMi41MiAxLjgxOCAxLjI0MyAyLjQ0OSAyLjE3MWExMC4xNCAxMC4xNCAwIDAgMCAxLjk0OC0zLjI4NGMuNDgyLTEuMjI1LjcyNC0yLjU0Mi43MjQtMy45NTIgMC0xLjU1OS0uMjk3LTMuMDA2LS44OTEtNC4zNDItLjU5NC0xLjM3My0xLjM5Mi0yLjU2MS0yLjM5NC0zLjU2M3MtMi4xOS0xLjgtMy41NjMtMi4zOTRjLTEuMzM2LS41OTQtMi43ODMtLjg5MS00LjM0Mi0uODkxcy0zLjAyNC4yOTctNC4zOTguODkxYy0xLjMzNi41OTQtMi41MjQgMS4zOTItMy41NjMgMi4zOTRBMTEuMzUgMTEuMzUgMCAwIDAgMy4xNzQgOS4xM2MtLjU5NCAxLjMzNi0uODkxIDIuNzgzLS44OTEgNC4zNDIgMCAxLjQxLjIyMyAyLjcyOC42NjggMy45NTIuNDgyIDEuMjI1IDEuMTUgMi4zMTkgMi4wMDQgMy4yODQuNjMxLS45MjggMS40NDctMS42NTEgMi40NDktMi4xNzFhNi42NSA2LjY1IDAgMCAxIDMuMjg0LS44MzV6bTIuNzgzLTcuMDE0YTUuNjggNS42OCAwIDAgMS0uNDQ1IDIuMjI3IDUuODcgNS44NyAwIDAgMS0xLjIyNSAxLjc4MWMtLjQ4Mi40ODItMS4wNTguODcyLTEuNzI2IDEuMTY5cy0xLjM5Mi40NDUtMi4xNzEuNDQ1YTUuNjggNS42OCAwIDAgMS0yLjIyNy0uNDQ1IDYuNDQgNi40NCAwIDAgMS0xLjc4MS0xLjE2OSA2LjQ0IDYuNDQgMCAwIDEtMS4xNjktMS43ODEgNS42OCA1LjY4IDAgMCAxLS40NDUtMi4yMjdjMC0uNzc5LjE0OC0xLjUwMy40NDUtMi4xNzFBNi40NCA2LjQ0IDAgMCAxIDkuNTIgNi43MzdhNS44NyA1Ljg3IDAgMCAxIDEuNzgxLTEuMjI1IDUuNjggNS42OCAwIDAgMSAyLjIyNy0uNDQ1Yy43NzkgMCAxLjUwMy4xNDggMi4xNzEuNDQ1czEuMjQzLjcwNSAxLjcyNiAxLjIyNWE1Ljg3IDUuODcgMCAwIDEgMS4yMjUgMS43ODFjLjI5Ny42NjguNDQ1IDEuMzkyLjQ0NSAyLjE3MXptLTIuNzgzIDBjMC0uNzc5LS4yNzgtMS40MjktLjgzNS0xLjk0OC0uNTU3LS41NTctMS4yMDYtLjgzNS0xLjk0OC0uODM1YTIuNzMgMi43MyAwIDAgMC0yLjAwNC44MzVjLS41NTcuNTItLjgzNSAxLjE2OS0uODM1IDEuOTQ4YTIuNzMgMi43MyAwIDAgMCAuODM1IDIuMDA0Yy41NTcuNTIgMS4yMjUuNzc5IDIuMDA0Ljc3OS43NDIgMCAxLjM5Mi0uMjYgMS45NDgtLjc3OWEyLjczIDIuNzMgMCAwIDAgLjgzNS0yLjAwNHpNNy4wNzEgMjIuNjU3Yy44OTEuNjMxIDEuODc0IDEuMTMyIDIuOTUgMS41MDMgMS4xMTMuMzcxIDIuMjgyLjU1NyAzLjUwNy41NTcgMS4xODggMCAyLjMxOS0uMTg2IDMuMzk2LS41NTcgMS4xMTMtLjM3MSAyLjExNS0uODcyIDMuMDA2LTEuNTAzLS4zNzEtLjY2OC0uODkxLTEuMTg4LTEuNTU5LTEuNTU5LS42MzEtLjQwOC0xLjMxNy0uNjEyLTIuMDYtLjYxMmgtNS42MjJjLS43NDIgMC0xLjQ0Ny4yMDQtMi4xMTUuNjEyLS42MzEuMzcxLTEuMTMyLjg5MS0xLjUwMyAxLjU1OXoiLz4mI3hhOzwvc3ZnPg==;" parent="1" vertex="1">
          <mxGeometry x="-357.25" y="478" width="64.5" height="64.5" as="geometry" />
        </mxCell>
        <mxCell id="CBPTevJeyTvfQtbZMOis-7" style="edgeStyle=orthogonalEdgeStyle;rounded=0;orthogonalLoop=1;jettySize=auto;html=1;strokeWidth=3;" parent="1" source="jEus2W5ITfwieqKF0qT7-20" edge="1">
          <mxGeometry relative="1" as="geometry">
            <mxPoint x="-365" y="510.5" as="targetPoint" />
          </mxGeometry>
        </mxCell>
        <mxCell id="jEus2W5ITfwieqKF0qT7-20" value="" style="shape=image;verticalLabelPosition=bottom;labelBackgroundColor=default;verticalAlign=top;aspect=fixed;imageAspect=0;image=https://cdn-icons-png.flaticon.com/512/8832/8832880.png;" parent="1" vertex="1">
          <mxGeometry x="-536.25" y="474" width="73" height="73" as="geometry" />
        </mxCell>
        <mxCell id="CBPTevJeyTvfQtbZMOis-8" style="rounded=0;orthogonalLoop=1;jettySize=auto;html=1;exitX=1;exitY=1;exitDx=0;exitDy=0;entryX=0;entryY=0;entryDx=0;entryDy=0;strokeWidth=3;" parent="1" source="jEus2W5ITfwieqKF0qT7-23" target="jEus2W5ITfwieqKF0qT7-18" edge="1">
          <mxGeometry relative="1" as="geometry" />
        </mxCell>
        <mxCell id="jEus2W5ITfwieqKF0qT7-23" value="" style="shape=image;verticalLabelPosition=bottom;labelBackgroundColor=default;verticalAlign=top;aspect=fixed;imageAspect=0;image=data:image/png,iVBORw0KGgoAAAANSUhEUgAAAOEAAADhCAMAAAAJbSJIAAABL1BMVEX///8AAABU2fj/kae+2u5W3///lawAxPOamppS1vQveYsSLzaHh4fD4PX4+/1ldH6ES1aPUV3/VHcgICBNyOQDCgsscYEoaHYIFhrt7e1hNz//iqH/UHRhIC3Z2dmlpaV0dHQAaIFY4/9r3vmu7PvIyMieWmizZnXm5uZQUFD0i6DKc4RA1vcAwe8AzP1HuNLbfI90QkzDb4A5OTmC4fnL8vxzhJDQ0NBjY2MsLCw5lKkeTVhBqcENIichExZGKC5UMDe5ubkcSVONjY0/Pz89nrUjW2gAaYOEKz0xHCD/sL8AfpwuzfUAWG42i58VNz8AocgmFRl/0uY9Rk0AlrwAO0kAS10AHCInwOUAT2IAepcAsdsAm8BeXl5OTk4yEBeUqbnc6/auyNpWY2x9Vl5ipT6lAAASKklEQVR4nO2de0MbNxLAY6e2MRAXDptHegfUKZgYBzD0yvsd6HGhoWnT6/Vocu3dff/PcN7VjDSSRto1qwXceP5I2JW81k8jzYweKz95Ysn8ws5uo+CVuTjjij/TfUtjd2dh3sYxpbawleJhj5Iwlq2Fmh9waTfVcx4vYaGwe+oDXEz5lB++juSHXEt6d1l0t9CXaZ9RL0aynmcxs8hLV0tNDfjYCQsvecBxlWNsZtQn04KwPu3Ndd/y3ZgCGOcATzF19m21lCBFIUnZ7leu1169mUUIxtzU0IrOVBFg0KRSWXv1HVDs2l1xAZJGB5WvGCFW1r4FjgWLEBz9zAADFq8jRNDilgk4L+43qg9dykzSI6y8gojTDOBGxO23g6xCUOIbgTJiEH4QtwdbhTFh5ZVA+WAQCtXeDLYKi52IsCL8YsMg/APYmSIQoq1hCacfHeGLWNwXL7TcgvDLQSL8WpTu6/jihbj4Kr7oiIu/dmj2IeGQ8AFkSDj4hF/94QlffBXLC3ohcIvaBcgAEvYpQ8Ih4eOXIeGQ8PHLkLBHWKwOtHRe9aTiI/xDyZBw8GVIOPjyiRK+HBlw+SaSHz2E508GXJ5F8rmHkF0cHiCpfdaTIeFAy5BwSPj4ZUh4D4S12lwtYXtkpsf3R1ibT5LU37yyvTSyuPPh49bW7tTu1tbHDzuLI0vbKyGgNOmTcD4p8PuY6kuXzl9OOR4w9fL8dC4Y3pO+CRM3yDp2AFK6cRccwRxfCtZu75dw7nQnkQ5lJ5Aq75NwaSdhM7whjZ2lQSKsLSQ3TlumRjK31tCW5jX/NSvjzk80yL+cjGc0r30Szo0s+IXdFL/i3A1/uVcXu5XG6nv7rkyLmRjvwePXnPqbqZdKTSBslkr1GaceM7TV/AkXXMW+rDeLxWIJCKO1g2bdqUd782tayZtwXnvdpjF9Jv++aMbLCpSwd7Un08++1PrmVvpo6V4JtQY6tle9kH/XYcFHJyyW1g9lFVy/GaMfv2NBciWcp+8T3RyUmvJtjDO5Nd4gLJaqUs3rzev3P5En7N5Jjf0SztnitAIjpHRn681SsY7tbl+t2JmEvTvYGRv1Umfte8po7vHNgXCl0DDFpeQaCdDGDuL3MbDo+2R5zyZU+c56N6/X3pO2utO/UQ0Q0/CEKySEeVuMLeVbuLypJhBWb/CDPWvUWau8UY+a6ts35kW4pNL3wajU4bpRLyYQyqziZarrtVf/UI/rN1bNiVA5wcYFlh0Vs15KJCyhSbqJL68ra++V6+jTNeZDqGzMmfQK2EaNlxtYQjN3p7J2qyxOf+sMASJvm/Bcpo2qvgVKOCvqwhMWi+AzoElH2w2+lU/tC7HfyHtn0RKr1Sg3f9CUIBhz1g0SFyF2RXxVoNJrqb5mE4owjUgNHtZLVoGtF3BchLKdYpX0EG9/voMWwxPKPnhDAJuXAG1tznERFksQvu1jO4hefZGdMb3vD04oregZ9XpoGw/6IDyAz6zjHQ3R+3Z2noTSD+7TIpcumZsJhDJ6u5RJ0eYm6RnT+sXAhNKbXGqFxV643hchKl4qMX7T7hf8ipTRTWBCHExoTbRYmja1kYZQal7trOvQhrr7EIQYbI/pb/RVLWWkIpS9V3mYGBEj8Z37J0Qro0ee0vCfNfskbILbJy7mmrwRmi5+C0koO6HR3Zpg921DmkCI5vSQVE0Pce37frpiSMLX8L0XRmmhsc1yKvQSFpuzdvOukOjGMTubFyG6+mmDpAkB2x4PgbOJLD5MTM2Q1A59/zyF4w9HiG10rG4KdJt1KyGSKhBW2VRQf4Pe++ft7a20NsntNBwhvBddmDUFABtWghDXx7wf/hk/Zr67nCPhaeFhJDF6C0VYS3cQUXhhDrvIh9A5d5+7JDnFUIQPBmiVOifCEXcBcpcEjxGGsAZfdjljCUTPY3YKiLCKs870MfbR3/UERxn+nhiGEHrhYbFpHvLThLWYPSsFM6j1Qz4dnP6FnmGtJxWIBv09MQwhGFImasERkDkBlS5qiwTGlsbhFfTEEuvYmfCEp9ASuaBMJM06ARIJS+D0m/ptcp6H3ycGIYRwhjvIhtdAX4QzbCugSvQGNiEIMSJlDrLB8Q8fdacjhNGlMWLpkGNnvNFpCEKYIOXOy8L5C2c3TCYUg6/Z/QPjNn3pzucwQhA23BQwSp91n1OUTFi9HD2ol5rm7fjsoFvx1ebJOoEJYS2DPYuoKgw6M4uYnjA65I67HSsRpqU8698BCM89XQ3Gd573UFMQOoTaGs8sfwDCLXcjRUNjzmsEIeyQZupxidkJwZKyDRHtIDeNmJlQuESYA3db0+yEELGxp7o5fNldCJnOWCHN1O30sxMuetQESw+HvpKnICyVqusXb0fN29SaLuZHCIN7HgKmmW6amQghth0zXY44iU2sKW45BxiZCaEbXrIQELNx6xX9E9ptPW6mvyR0xMyEpyIXby3rnj7aB+Goj/B9QkfMTHju6YboDj3OIhXhheM74o4IU/xOj5iZEJab2AJi0dgFiz4IXV41JqyIROdCVGZCEZQ6JuWT3WEqW7ruaOziyAthaqZyIxSZ+PGfswP1SQjd2R68eA59DEa44qhejdBT+HQe30v4L5HqMqZZCZccXUSUHkKaZkbCpquh0KjGtXMhK+Gpr6fhbopAhLZbpcbU5S6yEi74eloJxr+ZCcWc6hlPCHGba04xKyG4Q34MXxIbLnlDi6X3rZDqeewxNj0j2OUQsxJC3M0ub9brYoR/w69+guA7Mx6BPcOHVkK0WHqbEHtnJQSHb+3+hj3g3tRQeUSiy+VnJcSV34cX16RpVsL0v3+Rt7jeCxwSDlvp4yHMy9KALZ3mRXjqw1FHMskz68syeujK82UkogiLORHCrnX+x1fQU7tWP9OskMZ5bhx5ruOFUn85sxLCAr43pqEb7+w8aaI2iBy8MU1eURvEpd7Iu5GZUDh1e9L5PuLSU5GJn6fASbLMhOIx9tginsVImIrKSrgtMvEroLh66J3tTTMjLB5jr+/Q8eF2ToRzIhP/a0I4xvf9ykkawqrrSypkJ6ZrSjjQPA27wVnORAWap3HMRP3EFj4c4WtPV8MNsIFmE62uIAhFonO7cGbCcY+aUiwf9jMjbFUUNaXOYmYmXPCpqe6o/D4J9xy1GBP+KhKdG6MyE867rAAh9B22nIbQtaGDTiY6V/IzE4Ix5RfQcKMCm5iaEDZ0HFommRoa53E92VdIxQixwdtLUTbfNFMaQpHlzLwvuqGId9wn/2QnPPd0RAhqPNtp0hBWxfDDCmloN3RvxshOCFENu3KBLj/bToV1R1enqxauiCYE4RysPnF6SrG8lkzo8jliZ5vo6Q33qVkB9tN88OjJVf19EToaAp3S9+xODEB4KvKxLgHel/Es5KcgFJ3ZsmV0655nh2kAQvAX7BoalP8m0849PkeHLAD7tnqH2Jv4ge8npP4z7b50bOi4JtsUfFtoQxBCM+WcfnLsnbyD1hF3U3fv2wYdZBc0vpzGlC/R1CQT8oamQ+yMb3tpGEIYX9C3BKWIJHvpLz3hGdvNqTP0nrAQhBA3ejO9DSYC3Uv5yf2Q7QN066X/JcQw71vAvDAT1+Aw39kRk1ZIsRsaA3z6M7/+d7rDEELkxr0mClHN9J1XSGHodKHfjVZG8YVnd8QWjlC+5GxLfwd6usX9nIRjbwMRbju/P3/xqzDY+4cfHwww6VzfUISJB5vmJkkH8QV709l5RGnOsphUsGCEc+5C5CqJxymHex8fX5S9GTUENrc1ps0EIbBCyidOgwmdIbemv+0JnjiQfKhCwFMj8H31urGQCT69sM4ugnpXSPGwTC01WhXFaCbFGTUBCdHYmLN+OL7gN7v7T/6AwRcdV8Tnt+ChXynO+wx5tgkeY2aO5PAAHnYY7CVkPtmhJymlOdQs6Ak86BRHdW3hMJgdQnnPpxm1q4yebJLuEP+QhPIIngsNEY+0YqdNfYRVPJ5GJdLTadKdhRX2nKhT/G5jKAFDKG6vtO8kLBiX3Khb0QlDv+KXpDuyLfBZX+csIk6b2isPXkJY9SATQNoRSilPFgx9Ip3cI6WdFYVlZZToOa/trVkvGmDyyTT5EKpxFEXEgxEYc+oeAaMh3cOkDgVMc0TUXQmZ46CJzMuBnDZmhXv2QNh9ihIMfdX+496gVxqZxry/GFkIa/5fcWiwQ1X+biq50wOn1BRxcMLHIUPCIeHjlyFhGsKriUcnf4vk38EIn5cfmzz9UyR/CUj49JHJF38eEg4JP2XCuJ9rV+a1XhZvfit72tz5Ebbbm8vdwpH8zuVYNvBysnCyvNluqzK2N1qTJ4UJ/PyGyC8fd1XoLq+2Se7lyePCpp67JZN7Xqu10c6XsNwV+bBQG+JysqwnK8KC9vleDcSCNdIWl90y/7QT9sta5VwJl7Ui4mUB06/iqyOpozLcwMt3IvuyjoSX7SPt24AfdVpukcv8CFe1MgGAJDZ00sswoakBiApXZa2CsFmWj0WqyF3eLGiP056VYz8U+aBjYYmRGPhbipDWu1I51IjBb/QBvMIWorWH/AjLVAlY/kLhWCNYVeZP0znoSNXBMSVQzxOfb7/D3KsiuUDKkiPhc5FRu0ClmHZIFUs0tLbMDg8UFyfy6Vp9yAYCpkezQzkSUlOjSiyUUhaWQvqSSIjtUSqHSjAMjd6PsQnLT0O33MybcFMRSVMgc1CFPdU6U1tXeVxOJCbdVlTRVXzxTuXeIMSiC+cY0xBTo0wBIBj+jOo86krgDGQtoHdUjRrrgDwslkjL4B2Pcvb4Uk+xaSFliJSiG04oszKv+KeQp8rw2PWxQe1uQfTU9pX8MwuhOXvOECpTo5W4pxTT+Btdi3SsQmwvwS6fEELVB6SrRWTQ6UQKwh9ZwtfsXZtQdQe9xAWpk3c6oShppPMjmr1XUr3MRh9o08w95LLuax2Ev0eEn4mc5lIAbKpcSiSUTRFUUIDeuFE2gi6tax21ywCE5qZMjZbRB67K+DUQmj4vGyGth/DZbyKn2eNOWXCmlUpzgiXeNG5M6IRYMvxjs2vc2KC5nyM+Rt1gUduGr3UQxo10i1WWPEp+IYkQNHWCpqAF9X6kOyyza22CJyg8bWGNGEMHrT6gkR5jV9gExwoRrYMwVuE3QGICyp+I204ghIJdoSVsY71vMDohOocyn5Rl4aGHsvUB/09g9+savpYnfKbaKLNQKNfllxIIobnAV59Iu94SCUeaoZE674Lqeq7tRHtAV1M54E+C6lZlb6eDQxfh7wSQW/eXi9aLZEGOIYSidmWJoVRXx6AbnRCHRGD927JGnutl1urjSo4jsEKxWjhCVMezZ//5L0Kw+6fUztidkaV5IcxMlOYG4zZ5TG90TULNqRw/1aMVOXDQ+4B6Fg0NC6rTaoSiqNu/ffOjzMevGnO/ylmwCTVPFYWQaB6EtEzCFk2NIjrdmeuNWq+PyGjpjpGbieLEscfPuW9UIyyTkFjEoJpSdJ2YqRtmjVzpFaLXR3yHxOuqIAmEzg1iK44fkNEJ6VeuWswmoBa+ilEDbefmVOyGmaYxL6ci3PXsLqrxe2N1QhoTl82mdWSUWA6JYhHRQJk8YNnITxtlyxgJE1/rI1z0/8rHNreJWyckfV+YFTpqMA2NPsgSppDe2TS7LemkMF9zbN7xEr5O2OweNdVxq63qTYlUM070qTumTnSdl606apu5Ff2J9fl3SYS75yl/kn1uewmEW7cgPHaxVm1CpWFUMKkjMzvpdsasqlYOzVtgYbcTd0kzwhKemN9IimXqRONBT6KM1YlFqOpDrhXIOxM84R24pLBrT8raS98nId7ZgDgbRfBVjUxaKpePupLfJw3ZJk/Y/6/MJxG2zBIrpdiGhrRha2LZjg+IxhS8VKsK6vMllOVTTUxC2zohOieTatjQ7UYtK4uEDnCHBPX3REjsJloD0/jHZUbTqVQg7SNDiEnkFjQCEtTnTIjjHzISRKdlDA41fDrqgFsndmasD9LemVs5E5Zb3W60p6Vs32JMaU/nE1Fil/a58kSUvWt3w17u53ESrat2/PAuabd567BsLm6zt+6an0mxbuVN+PAyJBwSfoqEjv1zsdx5+10G+YLfuXdnwqtJVpYFYItPzVf43Zd3JnSIGK5py4gPITkSwraQCV+ee5A8Cf8ey//uC8UhORLC7y6N+/Lcg+RP+FDvrqN88oT/B28HJZ+GpTewAAAAAElFTkSuQmCC;" parent="1" vertex="1">
          <mxGeometry x="-540" y="282.75" width="80.5" height="80.5" as="geometry" />
        </mxCell>
        <mxCell id="jEus2W5ITfwieqKF0qT7-49" value="&lt;font color=&quot;#faa627&quot;&gt;wilhelm-data-loader&lt;/font&gt;" style="text;html=1;align=center;verticalAlign=middle;whiteSpace=wrap;rounded=0;fontColor=#2088FF;fontFamily=Ubuntu;fontStyle=1;fontSize=18;strokeColor=none;" parent="1" vertex="1">
          <mxGeometry x="357" y="550" width="190" height="30" as="geometry" />
        </mxCell>
        <mxCell id="CBPTevJeyTvfQtbZMOis-4" style="edgeStyle=orthogonalEdgeStyle;rounded=0;orthogonalLoop=1;jettySize=auto;html=1;exitX=0.5;exitY=1;exitDx=0;exitDy=0;" parent="1" edge="1">
          <mxGeometry relative="1" as="geometry">
            <mxPoint x="452" y="579" as="sourcePoint" />
            <mxPoint x="452" y="579" as="targetPoint" />
          </mxGeometry>
        </mxCell>
        <mxCell id="CBPTevJeyTvfQtbZMOis-9" value="Pull Request" style="text;html=1;align=center;verticalAlign=middle;whiteSpace=wrap;rounded=0;fontColor=#000000;fontFamily=Ubuntu;fontStyle=1;fontSize=18;" parent="1" vertex="1">
          <mxGeometry x="-320" y="517" width="190" height="30" as="geometry" />
        </mxCell>
        <mxCell id="lBE7YV5RTTJSdhW3G_g6-1" value="" style="shape=image;verticalLabelPosition=bottom;labelBackgroundColor=default;verticalAlign=top;aspect=fixed;imageAspect=0;image=https://upload.wikimedia.org/wikipedia/commons/9/91/Octicons-mark-github.svg;" parent="1" vertex="1">
          <mxGeometry x="420" y="478" width="64" height="64" as="geometry" />
        </mxCell>
        <mxCell id="lBE7YV5RTTJSdhW3G_g6-2" style="edgeStyle=orthogonalEdgeStyle;rounded=0;orthogonalLoop=1;jettySize=auto;html=1;strokeWidth=3;strokeColor=light-dark(#00AA00,#00AA00);" parent="1" edge="1">
          <mxGeometry relative="1" as="geometry">
            <mxPoint x="220" y="511" as="sourcePoint" />
            <mxPoint x="410" y="511" as="targetPoint" />
          </mxGeometry>
        </mxCell>
        <mxCell id="lBE7YV5RTTJSdhW3G_g6-6" value="&lt;font color=&quot;#60c203&quot;&gt;wilhelm-vocabulary&lt;/font&gt;" style="text;html=1;align=center;verticalAlign=middle;whiteSpace=wrap;rounded=0;fontColor=#2088FF;fontFamily=Ubuntu;fontStyle=1;fontSize=18;strokeColor=none;" parent="1" vertex="1">
          <mxGeometry x="-213" y="547" width="190" height="30" as="geometry" />
        </mxCell>
        <mxCell id="Xy-MJdKy8qwYKiyzYyn9-5" style="edgeStyle=orthogonalEdgeStyle;rounded=0;orthogonalLoop=1;jettySize=auto;html=1;curved=1;strokeWidth=3;strokeColor=#FF3333;" edge="1" parent="1">
          <mxGeometry relative="1" as="geometry">
            <mxPoint x="310" y="680" as="targetPoint" />
            <mxPoint x="220" y="530" as="sourcePoint" />
          </mxGeometry>
        </mxCell>
        <mxCell id="Xy-MJdKy8qwYKiyzYyn9-1" value="" style="shape=image;verticalLabelPosition=bottom;labelBackgroundColor=default;verticalAlign=top;aspect=fixed;imageAspect=0;image=https://upload.wikimedia.org/wikipedia/commons/9/91/Octicons-mark-github.svg;" vertex="1" parent="1">
          <mxGeometry x="140" y="478" width="64" height="64" as="geometry" />
        </mxCell>
        <mxCell id="Xy-MJdKy8qwYKiyzYyn9-2" style="edgeStyle=orthogonalEdgeStyle;rounded=0;orthogonalLoop=1;jettySize=auto;html=1;strokeWidth=3;strokeColor=light-dark(#00AA00,#00AA00);" edge="1" parent="1">
          <mxGeometry relative="1" as="geometry">
            <mxPoint x="-70" y="510" as="sourcePoint" />
            <mxPoint x="120" y="510" as="targetPoint" />
          </mxGeometry>
        </mxCell>
        <mxCell id="Xy-MJdKy8qwYKiyzYyn9-3" value="&lt;div&gt;Successful CI/CD:&lt;/div&gt;repository_dispatch" style="text;html=1;align=center;verticalAlign=middle;whiteSpace=wrap;rounded=0;fontColor=light-dark(#00AA00,#00AA00);fontFamily=Ubuntu;fontStyle=1;fontSize=18;strokeColor=none;" vertex="1" parent="1">
          <mxGeometry x="-70" y="460" width="190" height="30" as="geometry" />
        </mxCell>
        <mxCell id="Xy-MJdKy8qwYKiyzYyn9-4" value="&lt;font style=&quot;color: light-dark(rgb(255, 110, 150), rgb(255, 110, 150));&quot;&gt;wilhelm-vocabulary-acceptance-tests&lt;/font&gt;" style="text;html=1;align=center;verticalAlign=middle;whiteSpace=wrap;rounded=0;fontColor=#2088FF;fontFamily=Ubuntu;fontStyle=1;fontSize=18;strokeColor=none;" vertex="1" parent="1">
          <mxGeometry x="77" y="550" width="190" height="30" as="geometry" />
        </mxCell>
        <mxCell id="Xy-MJdKy8qwYKiyzYyn9-7" value="&lt;div&gt;Successful CI/CD:&lt;/div&gt;repository_dispatch" style="text;html=1;align=center;verticalAlign=middle;whiteSpace=wrap;rounded=0;fontColor=light-dark(#00AA00,#00AA00);fontFamily=Ubuntu;fontStyle=1;fontSize=18;strokeColor=none;" vertex="1" parent="1">
          <mxGeometry x="220" y="460" width="190" height="30" as="geometry" />
        </mxCell>
        <mxCell id="Xy-MJdKy8qwYKiyzYyn9-8" value="&lt;div&gt;&lt;font color=&quot;#ff3333&quot;&gt;Failed CI/CD:&lt;/font&gt;&lt;/div&gt;&lt;div&gt;&lt;font style=&quot;color: rgb(255, 51, 51);&quot;&gt;END&lt;/font&gt;&lt;/div&gt;" style="text;html=1;align=center;verticalAlign=middle;whiteSpace=wrap;rounded=0;fontColor=light-dark(#00AA00,#00AA00);fontFamily=Ubuntu;fontStyle=1;fontSize=18;strokeColor=none;" vertex="1" parent="1">
          <mxGeometry x="-80" y="690" width="190" height="30" as="geometry" />
        </mxCell>
        <mxCell id="Xy-MJdKy8qwYKiyzYyn9-9" value="&lt;div&gt;&lt;font color=&quot;#ff3333&quot;&gt;Failed CI/CD:&lt;/font&gt;&lt;/div&gt;&lt;div&gt;&lt;font style=&quot;color: rgb(255, 51, 51);&quot;&gt;END&lt;/font&gt;&lt;/div&gt;" style="text;html=1;align=center;verticalAlign=middle;whiteSpace=wrap;rounded=0;fontColor=light-dark(#00AA00,#00AA00);fontFamily=Ubuntu;fontStyle=1;fontSize=18;strokeColor=none;" vertex="1" parent="1">
          <mxGeometry x="220" y="690" width="190" height="30" as="geometry" />
        </mxCell>
      </root>
    </mxGraphModel>
  </diagram>
</mxfile>
